<?xml version="1.0" ?><!DOCTYPE svg  PUBLIC '-//W3C//DTD SVG 1.1//EN'  'http://www.w3.org/Graphics/SVG/1.1/DTD/svg11.dtd'><svg enable-background="new 0 0 64 64" height="64px" id="Layer_1" version="1.1" viewBox="0 0 64 64" width="64px" xml:space="preserve" xmlns="http://www.w3.org/2000/svg" xmlns:xlink="http://www.w3.org/1999/xlink"><g><path d="M10.2,39.6c-0.2,0-1.5-0.3-2.6,0.6c-0.8,0.7-1.3,1.7-1.3,3.2c0,0.6,0.4,1,1,1s1-0.4,1-1c0-0.6,0.1-1.3,0.5-1.6   c0.4-0.3,0.9-0.2,0.9-0.2c0.5,0.1,1.1-0.2,1.2-0.8C11.1,40.2,10.8,39.7,10.2,39.6z"/><path d="M56,17l-0.6,0c-1.4-3.7-4.5-5.9-8.3-5.9c-1.7,0-3.6,0.5-5.2,1.4c-0.1,0-0.1-0.1-0.2-0.1c-2.9-1.3-6-2-9.2-2   C20.7,10.3,11,20,10.9,31.8c-1.4,1-2.5,2.2-2.8,3.7c-4.4,0.3-7.2,2.7-7.2,6.2c0,3.7,3,6.2,7.4,6.2h9.2c0.1,0.2,0.1,0.3,0.3,0.5   c3.8,3.2,9.6,5.2,14.7,5.2c11.9,0,21.7-9.7,21.7-21.7c0-0.3,0-0.5,0-0.7c0-0.4,0-0.7-0.1-1.3H56c4.1,0,7-2.7,7-6.3   C63,19.8,60,17,56,17z M2.9,41.8c0-3.1,3.1-4.2,6.1-4.2c0.6,0,1-0.5,1-1c0-2.4,4.3-4.8,7.5-4.8c3.3,0,6.1,2.1,7,5.1   c0.1,0.4,0.5,0.7,1,0.7l1.3,0c2.9,0,5,1.9,5,4.5c0,3-2.6,4.1-5,4.1H8.4C5.9,46,2.9,44.9,2.9,41.8z M52.3,31.2c0,0.2,0,0.4,0,0.8   c0,10.8-8.8,19.7-19.7,19.7c-4.1,0-8.6-1.4-12-3.7h6.1c4.2,0,7-2.4,7-6.1c0-3.7-3-6.5-7.1-6.5c0,0,0,0,0,0l-0.6,0   c-1.4-3.5-4.8-5.8-8.7-5.8c-1.4,0-3,0.4-4.5,1.1c0.7-10.2,9.2-18.4,19.6-18.4c2.6,0,5.1,0.5,7.5,1.5c-1,0.9-1.7,1.9-2,3.1   c-5.2,0.2-7.6,2.2-7.6,6.5c0,3.9,2.9,6.6,7,6.6h14.6c0,0,0,0,0,0C52.3,30.7,52.3,30.8,52.3,31.2z M56,28H37.6c-3.1,0-5-1.8-5-4.6   c0-2.4,0.5-4.5,6.5-4.5c0.6,0,1-0.5,1-1c0-2.5,4-4.8,7.1-4.8c3.2,0,5.6,1.9,6.6,5.2c0.1,0.4,0.5,0.7,0.9,0.7l1.3,0c2.9,0,5,2,5,4.7   C61,26.7,58.5,28,56,28z"/><path d="M39.6,21c-0.2,0-1.9-0.4-3.1,0.7c-0.8,0.7-1.2,1.7-1.2,3c0,0.6,0.4,1,1,1s1-0.4,1-1c0-0.7,0.2-1.2,0.5-1.5   c0.4-0.4,1.2-0.3,1.4-0.3c0.5,0.1,1.1-0.2,1.2-0.8C40.5,21.7,40.1,21.1,39.6,21z"/><path d="M43.2,35.5c-0.5,0.1-0.9,0.7-0.7,1.2c0,0.1,0.7,3-2.6,4.6c-0.5,0.2-0.7,0.8-0.5,1.3c0.2,0.4,0.5,0.6,0.9,0.6   c0.1,0,0.3,0,0.4-0.1c3.8-1.8,4.1-5.2,3.7-6.8C44.3,35.7,43.7,35.3,43.2,35.5z"/><path d="M25.7,19.2c-4.2,0.2-5.4,3.6-5.5,5.4c0,0.6,0.4,1,1,1c0,0,0,0,0,0c0.5,0,1-0.4,1-1c0-0.1,0.1-3.3,3.6-3.5   c0.6,0,1-0.5,0.9-1.1C26.7,19.6,26.3,19.2,25.7,19.2z"/></g></svg>