<svg height="40pt" viewBox="-27 0 408 408.191" width="40pt" xmlns="http://www.w3.org/2000/svg"><path d="m170.082031 374h-12.027343l18.828124-54.402344h-27.199218l-18.832032 54.402344h-35.566406c-7.511718 0-13.601562 6.089844-13.601562 13.597656v13.601563h74.800781v-13.601563c0-7.507812 6.089844-13.597656 13.597656-13.597656zm0 0" fill="#d3843d"/><path d="m232.855469 374 18.828125-54.402344h-27.199219l-18.832031 54.402344h-35.570313c-7.507812 0-13.597656 6.089844-13.597656 13.597656v13.601563h108.800781v-13.601563c0-7.507812-6.089844-13.597656-13.601562-13.597656zm0 0" fill="#d3843d"/><path d="m61.285156 27.199219-54.402344 40.800781h54.402344l20.398438-20.398438zm0 0" fill="#fdbd40"/><path d="m142.882812 27.199219v156.402343h204l-40.71875 101.800782c-8.261718 20.65625-28.265624 34.195312-50.511718 34.195312h-112.769532c-45.066406 0-81.597656-36.53125-81.597656-81.597656v-170l20.398438-20.398438-20.398438-20.402343c0-11.265625 9.132813-20.402344 20.398438-20.402344h40.800781c11.265625.003906 20.398437 9.136719 20.398437 20.402344zm0 0" fill="#f4f4e6"/><path d="m197.285156 299.199219h-54.402344c-3.753906 0-6.800781-3.042969-6.800781-6.800781 0-3.753907 3.046875-6.796876 6.800781-6.796876h54.402344c26.273438-.03125 47.570313-21.324218 47.597656-47.601562v-20.398438h-102c-3.753906 0-6.800781-3.046874-6.800781-6.800781 0-3.753906 3.046875-6.800781 6.800781-6.800781h108.800782c3.753906 0 6.800781 3.042969 6.800781 6.796875v.003906 27.199219c-.039063 33.785156-27.414063 61.160156-61.199219 61.199219zm0 0" fill="#aabece"/><path d="m88.484375 27.199219h13.597656v13.601562h-13.597656zm0 0" fill="#5a6470"/><path d="m122.484375 0h-40.800781c-13.5625.0390625-25.015625 10.082031-26.828125 23.523438l-52.050781 39.039062c-3.007813 2.253906-3.613282 6.515625-1.363282 9.519531 1.285156 1.710938 3.300782 2.71875 5.441406 2.71875h47.601563v163.199219c.074219 47.722656 37.996094 86.78125 85.699219 88.261719l-14.171875 40.9375h-30.730469c-11.261719.011719-20.386719 9.140625-20.398438 20.402343v13.597657c0 3.753906 3.042969 6.800781 6.796876 6.800781h.003906 183.601562c3.753906 0 6.796875-3.042969 6.796875-6.796875 0 0 0 0 0-.003906v-13.601563c-.011719-11.261718-9.136719-20.386718-20.398437-20.398437h-9.28125l14.144531-40.867188c24.710937-.257812 46.816406-15.4375 55.929687-38.410156l40.71875-101.800781c1.394532-3.488282-.304687-7.445313-3.792968-8.835938-.800782-.320312-1.65625-.484375-2.519532-.484375h-197.199218v-149.601562c-.015625-15.015625-12.183594-27.183594-27.199219-27.199219zm-61.839844 36.179688 11.421875 11.421874-13.597656 13.597657h-31.183594zm27.839844 351.421874c.003906-3.753906 3.046875-6.796874 6.800781-6.800781h35.570313c2.898437 0 5.476562-1.835937 6.425781-4.574219l17.242188-49.828124h12.8125l-15.707032 45.378906c-.671875 1.945312-.425781 4.097656.667969 5.84375-.132813.238281-.1875.527344-.3125.773437-.5.984375-.917969 2.011719-1.25 3.066407-.148437.460937-.3125.898437-.429687 1.371093-.394532 1.558594-.601563 3.160157-.621094 4.769531v6.796876h-61.199219zm126.453125-61.203124-14.125 40.800781h-33.210938l14.121094-40.800781zm36.746094 54.402343c3.753906.003907 6.796875 3.046875 6.800781 6.800781v6.796876h-95.203125v-6.796876c.007812-3.753906 3.046875-6.796874 6.800781-6.800781h35.570313c2.898437 0 5.476562-1.835937 6.425781-4.574219l17.246094-49.828124h12.808593l-15.703124 45.378906c-1.226563 3.546875.652343 7.421875 4.199218 8.648437.71875.246094 1.46875.375 2.226563.375zm85.15625-190.402343-36.992188 92.480468c-7.175781 18.113282-24.710937 29.984375-44.195312 29.921875h-112.769532c-41.289062-.046875-74.753906-33.507812-74.800781-74.800781v-167.183594l18.410157-18.40625c2.65625-2.65625 2.65625-6.960937 0-9.613281 0-.003906 0-.003906 0-.003906l-18.164063-18.164063c1.242187-6.394531 6.839844-11.019531 13.355469-11.027344h40.800781c7.507813.007813 13.589844 6.089844 13.597656 13.597657v156.402343c0 3.753907 3.042969 6.796876 6.796875 6.796876h.003906zm0 0"/><path d="m136.082031 210.800781c0 3.753907 3.042969 6.796875 6.796875 6.800781h.003906 102.003907v20.398438c-.03125 26.277344-21.324219 47.570312-47.601563 47.601562h-54.402344c-3.753906 0-6.796874 3.042969-6.796874 6.796876 0 3.757812 3.042968 6.800781 6.796874 6.800781h54.402344c33.785156-.039063 61.164063-27.414063 61.199219-61.199219v-27.199219c.003906-3.753906-3.039063-6.800781-6.796875-6.800781 0 0 0 0-.003906 0h-108.800782c-3.753906 0-6.796874 3.042969-6.800781 6.796875zm0 0"/><path d="m88.484375 27.199219h13.597656v13.601562h-13.597656zm0 0"/></svg>
