<?xml version="1.0" ?><!DOCTYPE svg  PUBLIC '-//W3C//DTD SVG 1.1//EN'  'http://www.w3.org/Graphics/SVG/1.1/DTD/svg11.dtd'><svg enable-background="new 0 0 512 512" height="512px" id="Layer_1" version="1.1" viewBox="0 0 512 512" width="512px" xml:space="preserve" xmlns="http://www.w3.org/2000/svg" xmlns:xlink="http://www.w3.org/1999/xlink"><g><path d="M261.148,139.62c0,0-38.341-72.455,0-72.455C299.488,67.166,261.148,139.62,261.148,139.62z" fill="#010101"/><path d="M335.196,171.162c0,0,24.128-78.34,51.236-51.221C413.533,147.042,335.196,171.162,335.196,171.162z" fill="#010101"/><path d="M365.253,245.842c0,0,72.462-38.348,72.454,0C437.691,284.171,365.253,245.842,365.253,245.842z" fill="#010101"/><path d="M154.919,243.713c0,0-72.439,38.364-72.439,0C82.503,205.396,154.919,243.713,154.919,243.713z" fill="#010101"/><path d="M186.484,169.661c0,0-78.344-24.098-51.221-51.229C162.348,91.352,186.484,169.661,186.484,169.661z" fill="#010101"/><path d="M436.313,299.638c0,11.479-9.3,20.779-20.779,20.779H95.518c-11.483,0-20.779-9.3-20.779-20.779l0,0   c0-11.471,9.296-20.779,20.779-20.779h320.017C427.014,278.858,436.313,288.167,436.313,299.638L436.313,299.638z" fill="#010101"/><path d="M436.313,361.976c0,11.472-9.3,20.787-20.779,20.787H95.518c-11.483,0-20.779-9.315-20.779-20.787l0,0   c0-11.471,9.296-20.779,20.779-20.779h320.017C427.014,341.196,436.313,350.505,436.313,361.976L436.313,361.976z" fill="#010101"/><path d="M436.313,424.322c0,11.471-9.3,20.786-20.779,20.786H95.518c-11.483,0-20.779-9.315-20.779-20.786l0,0   c0-11.472,9.296-20.78,20.779-20.78h320.017C427.014,403.542,436.313,412.851,436.313,424.322L436.313,424.322z" fill="#010101"/><path d="M194.888,242.77c0-35.754,28.986-64.744,64.744-64.744c35.761,0,64.755,28.99,64.755,64.744   c0,9.989-2.448,19.335-6.49,27.774h25.215c2.91-8.742,4.55-18.054,4.55-27.774c0-48.603-39.419-88.014-88.029-88.014   c-48.604,0-88.022,39.411-88.022,88.014c0,9.72,1.636,19.032,4.55,27.774h25.206C197.344,262.105,194.888,252.759,194.888,242.77z" fill="#010101"/></g></svg>