<?xml version="1.0" ?><svg height="32px" version="1.1" viewBox="0 0 32 32" width="32px" xmlns="http://www.w3.org/2000/svg" xmlns:sketch="http://www.bohemiancoding.com/sketch/ns" xmlns:xlink="http://www.w3.org/1999/xlink"><title/><defs/><g fill="none" fill-rule="evenodd" id="Icons new Arranged Names Color" stroke="none" stroke-width="1"><g id="6 Cloud Rain Moon"><path d="M26.5,7 C27.0081591,7 27.4966455,6.9157708 27.9522593,6.76051208 C27.5785257,9.71515487 25.0560901,12 22,12 C18.6862913,12 16,9.31370866 16,6 C16,3.23523019 17.8700035,0.907223355 20.4141963,0.211793892 C20.9193401,0.0737178024 21.4510612,0 22,0 C22.2466982,0 22.489919,0.0148886931 22.7288129,0.0438165372 C22.2678947,0.750059906 22,1.59374485 22,2.5 C22,4.9852815 24.0147185,7 26.5,7 Z M26.5,7" fill="#FCFF73" id="Oval 20 copy 4"/><path d="M24,30 C23.4438648,30 23,29.5480902 23,28.9906311 L23,27.0093689 C23,26.4433532 23.4477153,26 24,26 C24.5561352,26 25,26.4519098 25,27.0093689 L25,28.9906311 C25,29.5566468 24.5522847,30 24,30 Z M16,30 C15.4438648,30 15,29.5480902 15,28.9906311 L15,27.0093689 C15,26.4433532 15.4477153,26 16,26 C16.5561352,26 17,26.4519098 17,27.0093689 L17,28.9906311 C17,29.5566468 16.5522847,30 16,30 Z M12,32 C11.4438648,32 11,31.5480902 11,30.9906311 L11,29.0093689 C11,28.4433532 11.4477153,28 12,28 C12.5561352,28 13,28.4519098 13,29.0093689 L13,30.9906311 C13,31.5566468 12.5522847,32 12,32 Z M8,30 C7.44386482,30 7,29.5480902 7,28.9906311 L7,27.0093689 C7,26.4433532 7.44771525,26 8,26 C8.55613518,26 9,26.4519098 9,27.0093689 L9,28.9906311 C9,29.5566468 8.55228475,30 8,30 Z M20,32 C19.4438648,32 19,31.5480902 19,30.9906311 L19,29.0093689 C19,28.4433532 19.4477153,28 20,28 C20.5561352,28 21,28.4519098 21,29.0093689 L21,30.9906311 C21,31.5566468 20.5522847,32 20,32 Z M20,32" fill="#006FD2" id="Rectangle 1 copy 6"/><path d="M0,19 C0,16.7828376 1.20753986,14.8416411 3.00211353,13.8029948 C3.10690617,8.92340284 7.0952729,5 12,5 C15.2334975,5 18.0687212,6.7052115 19.6554697,9.26543304 C20.2402063,9.09270499 20.8592769,9 21.5,9 C24.2845531,9 26.6601501,10.7509485 27.5858427,13.2118973 C30.129704,13.9074543 32,16.2353674 32,19 C32,22.3069658 29.3136299,25 25.9998243,25 L6.00017566,25 C2.68697795,25 0,22.3137085 0,19 Z M0,19" fill="#C6C6C6" id="Rectangle 1 copy 2"/></g></g></svg>