<?xml version="1.0" ?><svg id="Layer_1" style="enable-background:new 0 0 24 24;" version="1.1" viewBox="0 0 24 24" xml:space="preserve" xmlns="http://www.w3.org/2000/svg" xmlns:xlink="http://www.w3.org/1999/xlink"><title/><g id="Snowbulb"><g><g><path d="M19.52,15.81L19.52,15.81c-3.193,4.142-9.14,4.911-13.282,1.718     c-0.644-0.497-1.222-1.074-1.718-1.718L4,18.5c-0.663,0.514-0.784,1.469-0.27,2.133c0.139,0.18,0.317,0.326,0.52,0.427     C6.427,22.833,9.2,23.706,12,23.5c2.8,0.206,5.573-0.667,7.75-2.44c0.75-0.376,1.054-1.29,0.677-2.04     C20.326,18.817,20.18,18.639,20,18.5L19.52,15.81z" style="fill:#5C6671;"/><path d="M6.14,21.06c-0.758-0.635-0.858-1.764-0.223-2.522     c0.011-0.013,0.022-0.026,0.033-0.038l0.15-1.08c-0.595-0.472-1.132-1.012-1.6-1.61L4,18.5c-0.663,0.514-0.784,1.469-0.27,2.133     c0.139,0.18,0.317,0.326,0.52,0.427C6.427,22.833,9.2,23.706,12,23.5C9,23.5,7.89,22.69,6.14,21.06z" style="opacity:0.2;fill:#FFFFFF;enable-background:new    ;"/><path d="M20,18.5l-0.48-2.69l0,0c-0.464,0.598-0.998,1.138-1.59,1.61l0.15,1.08     c0.656,0.74,0.588,1.871-0.152,2.527c-0.013,0.011-0.025,0.022-0.038,0.033C16.11,22.69,15,23.5,12,23.5l0,0     c2.8,0.206,5.573-0.667,7.75-2.44c0.75-0.376,1.054-1.29,0.677-2.04C20.326,18.817,20.18,18.639,20,18.5z" style="opacity:0.1;enable-background:new    ;"/><path d="M17.29,13.5h-4.58c-1.067-0.684-2.314-1.032-3.58-1c-2.013-0.008-3.946,0.788-5.37,2.21     c2.599,4.551,8.396,6.134,12.947,3.535c1.97-1.125,3.471-2.918,4.233-5.055C19.736,13.408,18.514,13.511,17.29,13.5z" style="fill:#F8F8F8;"/><path d="M12,0.5C6.759,0.496,2.507,4.742,2.503,9.983c-0.001,1.658,0.432,3.288,1.257,4.727     c1.424-1.422,3.357-2.218,5.37-2.21c1.266-0.032,2.513,0.316,3.58,1h4.58c1.224,0.011,2.446-0.092,3.65-0.31     c1.773-4.926-0.784-10.357-5.71-12.13C14.194,0.687,13.101,0.498,12,0.5z" style="fill:#CEE3F0;"/><polygon points="14,6.5 14.27,8 15.7,8 16,6.5    " style="fill:#303C42;"/><path d="M13.89,8c-0.554,0.601-0.516,1.537,0.084,2.091c0.034,0.031,0.069,0.061,0.106,0.089     c-1.285,0.505-1.917,1.957-1.412,3.242s1.957,1.917,3.242,1.412s1.917-1.957,1.412-3.242c-0.254-0.646-0.765-1.157-1.412-1.412     c0.652-0.493,0.782-1.421,0.289-2.073C16.171,8.07,16.141,8.034,16.11,8H13.89z" style="fill:#F8F8F8;"/><polygon points="8.5,5 6,10.5 11,10.5    " style="fill:#0DB14B;"/></g><path d="M12,0.5c-5.247,0-9.5,4.253-9.5,9.5s4.253,9.5,9.5,9.5    s9.5-4.253,9.5-9.5S17.247,0.5,12,0.5z M11.5,16.5c-3.866,0-7-3.134-7-7s3.134-7,7-7s7,3.134,7,7S15.366,16.5,11.5,16.5z" style="opacity:0.05;enable-background:new    ;"/><circle cx="9" cy="7" r="2.5" style="opacity:0.2;fill:#FFFFFF;enable-background:new    ;"/><circle cx="9.5" cy="2.5" r="0.5" style="fill:#F8F8F8;"/><circle cx="4.5" cy="7.5" r="0.5" style="fill:#F8F8F8;"/><circle cx="11.5" cy="4.5" r="0.5" style="fill:#F8F8F8;"/><circle cx="15.5" cy="3.5" r="0.5" style="fill:#F8F8F8;"/><circle cx="18.5" cy="7.5" r="0.5" style="fill:#F8F8F8;"/><g><path d="M20,15.92c3.313-4.418,2.418-10.686-2.001-14s-10.686-2.418-14,2.001     C2.685,5.674,1.983,7.809,2,10c-0.001,1.725,0.447,3.421,1.3,4.92c0.016,0.036,0.036,0.069,0.06,0.1     c0.186,0.318,0.39,0.625,0.61,0.92l-0.43,2.33c-0.427,0.419-0.653,1.002-0.62,1.6c0.08,0.655,0.446,1.241,1,1.6     C6.27,23.08,7.77,24,12,24s5.73-0.92,8-2.53c0.554-0.359,0.92-0.945,1-1.6c0.033-0.598-0.193-1.181-0.62-1.6L20,15.92z      M4.91,15.53L4.91,15.53c-0.187-0.24-0.36-0.487-0.52-0.74c1.269-1.207,2.97-1.852,4.72-1.79c1.13-0.013,2.243,0.281,3.22,0.85     c0.759,1.473,2.569,2.051,4.041,1.292c0.502-0.259,0.921-0.655,1.209-1.142c0.865-0.006,1.728-0.083,2.58-0.23     c-2.092,4.509-7.444,6.468-11.952,4.375C6.917,17.546,5.787,16.65,4.91,15.53z M14.6,7h0.79l-0.1,0.5h-0.61L14.6,7z M14.39,9.78     C14.148,9.593,14.004,9.306,14,9c0.008-0.178,0.063-0.351,0.16-0.5h1.68C15.937,8.649,15.992,8.822,16,9     c-0.004,0.306-0.148,0.593-0.39,0.78c-0.219,0.169-0.259,0.483-0.09,0.701c0.055,0.071,0.127,0.125,0.21,0.159     c1.027,0.406,1.531,1.568,1.125,2.595c-0.406,1.027-1.568,1.531-2.595,1.125s-1.531-1.568-1.125-2.595     c0.203-0.514,0.611-0.922,1.125-1.125c0.256-0.103,0.381-0.393,0.279-0.65c-0.033-0.083-0.088-0.156-0.159-0.21H14.39z M12,1     c4.971,0,9,4.03,9,9c0,0.888-0.131,1.771-0.39,2.62C19.76,12.86,18.883,12.988,18,13c0.237-1.159-0.253-2.347-1.24-3     c0.166-0.307,0.249-0.651,0.24-1c-0.002-0.169-0.026-0.337-0.07-0.5H17c0.276,0,0.5-0.224,0.5-0.5c0-0.276-0.224-0.5-0.5-0.5     h-0.69l0.18-0.9c0.055-0.271-0.119-0.535-0.39-0.59C16.067,6.003,16.034,6,16,6h-2c-0.276,0.001-0.499,0.226-0.498,0.502     c0,0.03,0.003,0.059,0.008,0.088l0.16,0.91H13c-0.276,0-0.5,0.224-0.5,0.5c0,0.276,0.224,0.5,0.5,0.5h0.07     C13.026,8.663,13.002,8.831,13,9c0.007,0.353,0.107,0.698,0.29,1c-0.818,0.568-1.302,1.504-1.29,2.5c0,0,0,0,0,0.06     c-0.912-0.357-1.881-0.546-2.86-0.56H9v-1h2c0.276,0.003,0.503-0.218,0.506-0.494c0.001-0.075-0.015-0.149-0.046-0.216L9,4.79     C8.861,4.539,8.545,4.448,8.293,4.587C8.208,4.634,8.137,4.704,8.09,4.79l-2.5,5.5c-0.117,0.25-0.009,0.548,0.241,0.665     C5.884,10.98,5.941,10.995,6,11h2v1.06c-1.519,0.184-2.948,0.822-4.1,1.83C1.752,9.408,3.644,4.032,8.126,1.884     C9.335,1.304,10.659,1.002,12,1z M6.78,10L8.5,6.21L10.22,10H6.78z M19.46,20.65C17.26,22.19,15.93,23,12,23     s-5.26-0.81-7.46-2.35c-0.32-0.19-0.545-0.506-0.62-0.87c0.01-0.355,0.17-0.689,0.44-0.92c0.072-0.071,0.121-0.161,0.14-0.26     l0.31-1.67c3.83,3.979,10.16,4.1,14.14,0.27c0.092-0.088,0.182-0.179,0.27-0.27l0.3,1.67c0.017,0.102,0.066,0.197,0.14,0.27     c0.27,0.231,0.43,0.565,0.44,0.92C20.018,20.154,19.785,20.467,19.46,20.65z" style="fill:#303C42;"/><path d="M12,21c-2.208,0.108-4.385-0.553-6.16-1.87c-0.214-0.174-0.529-0.141-0.703,0.073     c-0.157,0.194-0.147,0.474,0.023,0.657C5.25,20,7.51,22,12,22c0.276,0,0.5-0.224,0.5-0.5S12.276,21,12,21z" style="fill:#303C42;"/></g><linearGradient gradientTransform="matrix(1 0 0 -1 0 24)" gradientUnits="userSpaceOnUse" id="SVGID_1_" x1="2.0774" x2="22.4774" y1="16.3872" y2="6.8772"><stop offset="0" style="stop-color:#FFFFFF;stop-opacity:0.2"/><stop offset="1" style="stop-color:#FFFFFF;stop-opacity:0"/></linearGradient><path d="M20,15.92c3.313-4.418,2.418-10.686-2.001-14s-10.686-2.418-14,2.001    C2.685,5.674,1.983,7.809,2,10c-0.001,1.725,0.447,3.421,1.3,4.92c0.016,0.036,0.036,0.069,0.06,0.1    c0.186,0.318,0.39,0.625,0.61,0.92l-0.43,2.33c-0.427,0.419-0.653,1.002-0.62,1.6c0.08,0.655,0.446,1.241,1,1.6    C6.27,23.08,7.77,24,12,24s5.73-0.92,8-2.53c0.554-0.359,0.92-0.945,1-1.6c0.033-0.598-0.193-1.181-0.62-1.6L20,15.92z" style="fill:url(#SVGID_1_);"/></g></g></svg>