<?xml version="1.0" ?><svg id="Layer_1" style="enable-background:new 0 0 24 24;" version="1.1" viewBox="0 0 24 24" xml:space="preserve" xmlns="http://www.w3.org/2000/svg" xmlns:xlink="http://www.w3.org/1999/xlink"><title/><g id="Snowflake"><g><polygon points="19.995,12 15.455,10 15.995,5 11.995,8 7.995,5 8.535,10 3.995,12 8.535,14 7.995,19     11.995,16 15.995,19.03 15.455,14   " style="fill:#C2DCED;"/><polygon points="12.005,14.12 9.855,15.73 10.135,13.07 7.715,12     10.135,10.93 9.855,8.27 11.995,9.88 14.135,8.27 13.855,10.93 16.275,12 13.855,13.07 14.135,15.74   " style="opacity:0.3;fill:#FFFFFF;enable-background:new    ;"/><path d="M22.245,13.54l-3.25,1.88l-2.4-1.37l3.61-1.59c0.254-0.108,0.372-0.402,0.264-0.656    c-0.051-0.119-0.145-0.213-0.264-0.264l-3.62-1.59l2.41-1.37l3.26,1.89c0.076,0.045,0.162,0.07,0.25,0.07    c0.276-0.003,0.498-0.229,0.495-0.505c-0.002-0.175-0.095-0.336-0.245-0.425L19.995,8l2.3-1.32    c0.24-0.138,0.323-0.445,0.185-0.685s-0.445-0.323-0.685-0.185l-2.32,1.33V4c0-0.276-0.224-0.5-0.5-0.5l0,0    c-0.276,0-0.5,0.224-0.5,0.5v3.74l-2.42,1.36l0.43-4c0.029-0.275-0.171-0.521-0.445-0.549c-0.127-0.013-0.253,0.022-0.355,0.099    L12.495,7V4.29l3.25-1.86c0.24-0.138,0.323-0.445,0.185-0.685c-0.138-0.24-0.445-0.323-0.685-0.185l0,0l-2.75,1.58V0.5    c0-0.276-0.224-0.5-0.5-0.5s-0.5,0.224-0.5,0.5v2.64l-2.75-1.57C8.505,1.432,8.198,1.515,8.06,1.755    C7.922,1.995,8.005,2.302,8.245,2.44l3.25,1.85V7l-3.2-2.4c-0.22-0.167-0.533-0.125-0.701,0.095    C7.517,4.797,7.482,4.923,7.495,5.05l0.43,4l-2.42-1.34L5.525,4c0-0.276-0.224-0.5-0.5-0.5h-0.03c-0.276,0-0.5,0.224-0.5,0.5v3.14    l-2.3-1.32C1.955,5.682,1.648,5.765,1.51,6.005S1.455,6.552,1.695,6.69L3.995,8l-2.75,1.6c-0.237,0.141-0.316,0.448-0.175,0.685    c0.089,0.15,0.25,0.243,0.425,0.245c0.088,0,0.174-0.025,0.25-0.07l3.25-1.88l2.4,1.37l-3.6,1.59    c-0.254,0.108-0.372,0.402-0.264,0.656c0.051,0.119,0.145,0.213,0.264,0.264l3.61,1.59l-2.41,1.37l-3.25-1.88    c-0.24-0.138-0.547-0.055-0.685,0.185c-0.138,0.24-0.055,0.547,0.185,0.685L3.995,16l-2.3,1.32    c-0.24,0.138-0.323,0.445-0.185,0.685c0.138,0.24,0.445,0.323,0.685,0.185l2.31-1.32V20c0,0.276,0.224,0.5,0.5,0.5h-0.01    c0.276,0,0.5-0.224,0.5-0.5v-3.74l2.44-1.36l-0.43,4c-0.029,0.275,0.171,0.521,0.445,0.549c0.127,0.013,0.253-0.022,0.355-0.099    l3.19-2.35v2.71l-3.25,1.86c-0.24,0.138-0.323,0.445-0.185,0.685c0.138,0.24,0.445,0.323,0.685,0.185l2.75-1.57v2.63    c0,0.276,0.224,0.5,0.5,0.5s0.5-0.224,0.5-0.5v-2.64l2.75,1.57c0.076,0.045,0.162,0.07,0.25,0.07    c0.276-0.003,0.498-0.229,0.495-0.505c-0.002-0.175-0.095-0.336-0.245-0.425l-3.25-1.86V17l3.2,2.42    c0.22,0.167,0.533,0.125,0.701-0.095c0.077-0.101,0.113-0.228,0.099-0.355l-0.43-4.08l2.42,1.39v3.74c0,0.276,0.224,0.5,0.5,0.5    l0,0c0.276,0,0.5-0.224,0.5-0.5v-3.16l2.31,1.32c0.24,0.138,0.547,0.055,0.685-0.185c0.138-0.24,0.055-0.547-0.185-0.685    l-2.3-1.31l2.76-1.6c0.24-0.138,0.323-0.445,0.185-0.685c-0.138-0.24-0.445-0.323-0.685-0.185L22.245,13.54z M18.755,12    l-3.25,1.43L12.995,12l2.5-1.43L18.755,12z M15.375,6.09l-0.38,3.62l-2.5,1.43V8.25L15.375,6.09z M8.615,6.09l2.88,2.16v2.89    l-2.5-1.43L8.615,6.09z M5.235,12l3.25-1.43l2.51,1.43l-2.5,1.43L5.235,12z M8.615,17.91l0.38-3.62l2.49-1.43v2.89L8.615,17.91z     M15.375,17.91l-2.88-2.16v-2.89l2.5,1.43L15.375,17.91z" style="fill:#303C42;"/><linearGradient gradientTransform="matrix(1 0 0 -1 0 24)" gradientUnits="userSpaceOnUse" id="SVGID_1_" x1="1.0856" x2="22.9044" y1="17.0897" y2="6.9103"><stop offset="0" style="stop-color:#FFFFFF;stop-opacity:0.2"/><stop offset="1" style="stop-color:#FFFFFF;stop-opacity:0"/></linearGradient><path d="M22.245,13.54l-3.25,1.88l-2.4-1.37l3.61-1.59c0.254-0.108,0.372-0.402,0.264-0.656    c-0.051-0.119-0.145-0.213-0.264-0.264l-3.62-1.59l2.41-1.37l3.26,1.89c0.076,0.045,0.162,0.07,0.25,0.07    c0.276-0.003,0.498-0.229,0.495-0.505c-0.002-0.175-0.095-0.336-0.245-0.425L19.995,8l2.3-1.32    c0.24-0.138,0.323-0.445,0.185-0.685s-0.445-0.323-0.685-0.185l-2.32,1.33V4c0-0.276-0.224-0.5-0.5-0.5l0,0    c-0.276,0-0.5,0.224-0.5,0.5v3.74l-2.42,1.36l0.43-4c0.029-0.275-0.171-0.521-0.445-0.549c-0.127-0.013-0.253,0.022-0.355,0.099    L12.495,7V4.29l3.25-1.86c0.24-0.138,0.323-0.445,0.185-0.685c-0.138-0.24-0.445-0.323-0.685-0.185l0,0l-2.75,1.58V0.5    c0-0.276-0.224-0.5-0.5-0.5s-0.5,0.224-0.5,0.5v2.64l-2.75-1.57C8.505,1.432,8.198,1.515,8.06,1.755    C7.922,1.995,8.005,2.302,8.245,2.44l3.25,1.85V7l-3.2-2.4c-0.22-0.167-0.533-0.125-0.701,0.095    C7.517,4.797,7.482,4.923,7.495,5.05l0.43,4l-2.42-1.34L5.525,4c0-0.276-0.224-0.5-0.5-0.5h-0.03c-0.276,0-0.5,0.224-0.5,0.5v3.14    l-2.3-1.32C1.955,5.682,1.648,5.765,1.51,6.005S1.455,6.552,1.695,6.69L3.995,8l-2.75,1.6c-0.237,0.141-0.316,0.448-0.175,0.685    c0.089,0.15,0.25,0.243,0.425,0.245c0.088,0,0.174-0.025,0.25-0.07l3.25-1.88l2.4,1.37l-3.6,1.59    c-0.254,0.108-0.372,0.402-0.264,0.656c0.051,0.119,0.145,0.213,0.264,0.264l3.61,1.59l-2.41,1.37l-3.25-1.88    c-0.24-0.138-0.547-0.055-0.685,0.185c-0.138,0.24-0.055,0.547,0.185,0.685L3.995,16l-2.3,1.32    c-0.24,0.138-0.323,0.445-0.185,0.685c0.138,0.24,0.445,0.323,0.685,0.185l2.31-1.32V20c0,0.276,0.224,0.5,0.5,0.5h-0.01    c0.276,0,0.5-0.224,0.5-0.5v-3.74l2.44-1.36l-0.43,4c-0.029,0.275,0.171,0.521,0.445,0.549c0.127,0.013,0.253-0.022,0.355-0.099    l3.19-2.35v2.71l-3.25,1.86c-0.24,0.138-0.323,0.445-0.185,0.685c0.138,0.24,0.445,0.323,0.685,0.185l2.75-1.57v2.63    c0,0.276,0.224,0.5,0.5,0.5s0.5-0.224,0.5-0.5v-2.64l2.75,1.57c0.076,0.045,0.162,0.07,0.25,0.07    c0.276-0.003,0.498-0.229,0.495-0.505c-0.002-0.175-0.095-0.336-0.245-0.425l-3.25-1.86V17l3.2,2.42    c0.22,0.167,0.533,0.125,0.701-0.095c0.077-0.101,0.113-0.228,0.099-0.355l-0.43-4.08l2.42,1.39v3.74c0,0.276,0.224,0.5,0.5,0.5    l0,0c0.276,0,0.5-0.224,0.5-0.5v-3.16l2.31,1.32c0.24,0.138,0.547,0.055,0.685-0.185c0.138-0.24,0.055-0.547-0.185-0.685    l-2.3-1.31l2.76-1.6c0.24-0.138,0.323-0.445,0.185-0.685c-0.138-0.24-0.445-0.323-0.685-0.185L22.245,13.54z" style="fill:url(#SVGID_1_);"/></g></g></svg>